<svg width="70" height="70" viewBox="0 0 70 70" fill="none" xmlns="http://www.w3.org/2000/svg">
<path d="M2.5 10C2.5 5.85786 5.85786 2.5 10 2.5H60C64.1421 2.5 67.5 5.85786 67.5 10V60C67.5 64.1421 64.1421 67.5 60 67.5H2.5V10Z" fill="white" stroke="url(#paint0_linear_39_127)" stroke-width="5"/>
<rect x="20" y="18" width="10" height="10" rx="5" fill="#0061FF"/>
<rect x="20" y="31" width="10" height="10" rx="5" fill="black"/>
<rect x="20" y="44" width="10" height="10" rx="5" fill="black"/>
<rect x="42" y="18" width="10" height="10" rx="5" fill="black"/>
<rect x="33" y="31" width="10" height="10" rx="5" fill="black"/>
<rect x="42" y="44" width="10" height="10" rx="5" fill="black"/>
<defs>
<linearGradient id="paint0_linear_39_127" x1="35" y1="1.98372e-07" x2="35" y2="70" gradientUnits="userSpaceOnUse">
<stop stop-color="#0061FF"/>
<stop offset="1" stop-color="#0061FF"/>
</linearGradient>
</defs>
</svg>
