<svg width="131" height="102" viewBox="0 0 131 102" fill="none" xmlns="http://www.w3.org/2000/svg">
<path d="M22.3698 61.6483L12.9334 48.5341V61.6483H3.44141V20.1758H12.9334V43.0978L22.3143 30.3758H34.0266L21.1486 46.0681L34.1376 61.6483H22.3698ZM47.2467 35.5879C48.3569 33.8693 49.7446 32.5242 51.4098 31.5527C53.0751 30.5439 54.9254 30.0395 56.9607 30.0395V40.1835H54.3518C51.9835 40.1835 50.2072 40.7066 49.023 41.7527C47.8388 42.7615 47.2467 44.5549 47.2467 47.133V61.6483H37.7547V30.3758H47.2467V35.5879ZM90.6951 45.5077C90.6951 46.4044 90.6396 47.3384 90.5285 48.3099H69.0468C69.1949 50.2527 69.8055 51.7473 70.8785 52.7934C71.9887 53.8022 73.3395 54.3066 74.9307 54.3066C77.2991 54.3066 78.9458 53.2978 79.8709 51.2802H89.9735C89.4555 53.3351 88.5118 55.1846 87.1425 56.8286C85.8103 58.4726 84.1266 59.7616 82.0913 60.6956C80.056 61.6296 77.7801 62.0967 75.2637 62.0967C72.2293 62.0967 69.5279 61.4429 67.1595 60.1352C64.7912 58.8274 62.9408 56.9594 61.6086 54.5308C60.2764 52.1021 59.6103 49.2626 59.6103 46.0121C59.6103 42.7615 60.258 39.922 61.5531 37.4934C62.8853 35.0648 64.7356 33.1967 67.104 31.889C69.4724 30.5813 72.1923 29.9275 75.2637 29.9275C78.2612 29.9275 80.9256 30.5627 83.2569 31.833C85.5883 33.1032 87.4016 34.9154 88.6968 37.2692C90.029 39.6231 90.6951 42.3692 90.6951 45.5077ZM80.9811 42.9857C80.9811 41.3417 80.426 40.0341 79.3158 39.0626C78.2057 38.0912 76.818 37.6055 75.1527 37.6055C73.5615 37.6055 72.2107 38.0726 71.1006 39.0066C70.0275 39.9406 69.3614 41.2671 69.1023 42.9857H80.9811ZM93.8153 45.956C93.8153 42.7428 94.4074 39.922 95.5916 37.4934C96.8128 35.0648 98.4595 33.1967 100.532 31.889C102.604 30.5813 104.917 29.9275 107.47 29.9275C109.654 29.9275 111.56 30.3758 113.187 31.2725C114.852 32.1692 116.129 33.3461 117.017 34.8033V30.3758H126.509V61.6483H117.017V57.2209C116.093 58.678 114.797 59.8549 113.132 60.7516C111.504 61.6483 109.598 62.0967 107.415 62.0967C104.898 62.0967 102.604 61.4429 100.532 60.1352C98.4595 58.7901 96.8128 56.9033 95.5916 54.4747C94.4074 52.0088 93.8153 49.1693 93.8153 45.956ZM117.017 46.0121C117.017 43.6209 116.351 41.734 115.019 40.3516C113.725 38.9693 112.133 38.278 110.246 38.278C108.359 38.278 106.749 38.9693 105.417 40.3516C104.121 41.6967 103.474 43.5649 103.474 45.956C103.474 48.3472 104.121 50.2527 105.417 51.6725C106.749 53.0549 108.359 53.7461 110.246 53.7461C112.133 53.7461 113.725 53.0549 115.019 51.6725C116.351 50.2901 117.017 48.4032 117.017 46.0121Z" fill="black"/>
<path d="M39.5776 91.6319V99.7582H34.7483C31.3068 99.7582 28.6238 98.9176 26.6996 97.2363C24.7753 95.5176 23.8132 92.734 23.8132 88.8857V76.4439H20.0386V68.4857H23.8132V60.8637H33.3051V68.4857H39.522V76.4439H33.3051V88.9978C33.3051 89.9318 33.5271 90.6043 33.9712 91.0154C34.4153 91.4264 35.1554 91.6319 36.1915 91.6319H39.5776ZM42.9775 84.0659C42.9775 80.8527 43.5695 78.0319 44.7537 75.6033C45.9749 73.1747 47.6216 71.3066 49.694 69.9989C51.7663 68.6912 54.0791 68.0374 56.6325 68.0374C58.8159 68.0374 60.7216 68.4857 62.3499 69.3824C64.0152 70.2791 65.2919 71.456 66.18 72.9132V68.4857H75.6719V99.7582H66.18V95.3308C65.2549 96.7879 63.9597 97.9648 62.2944 98.8615C60.6661 99.7582 58.7604 100.207 56.577 100.207C54.0606 100.207 51.7663 99.5528 49.694 98.245C47.6216 96.9 45.9749 95.0132 44.7537 92.5846C43.5695 90.1187 42.9775 87.2791 42.9775 84.0659ZM66.18 84.122C66.18 81.7308 65.5139 79.8439 64.1817 78.4615C62.8865 77.0791 61.2952 76.3879 59.408 76.3879C57.5207 76.3879 55.9109 77.0791 54.5787 78.4615C53.2835 79.8066 52.6359 81.6748 52.6359 84.0659C52.6359 86.4571 53.2835 88.3626 54.5787 89.7824C55.9109 91.1648 57.5207 91.856 59.408 91.856C61.2952 91.856 62.8865 91.1648 64.1817 89.7824C65.5139 88.4 66.18 86.5131 66.18 84.122ZM92.0308 58.2857V99.7582H82.5389V58.2857H92.0308ZM128.107 83.6176C128.107 84.5143 128.051 85.4483 127.94 86.4198H106.459C106.607 88.3626 107.217 89.8572 108.29 90.9033C109.401 91.9121 110.751 92.4165 112.342 92.4165C114.71 92.4165 116.358 91.4077 117.283 89.3901H127.385C126.867 91.445 125.923 93.2945 124.554 94.9384C123.222 96.5824 121.538 97.8715 119.503 98.8055C117.468 99.7395 115.192 100.207 112.676 100.207C109.641 100.207 106.94 99.5528 104.571 98.245C102.203 96.9373 100.353 95.0693 99.0206 92.6407C97.6884 90.212 97.0223 87.3725 97.0223 84.122C97.0223 80.8714 97.6699 78.0319 98.9651 75.6033C100.297 73.1747 102.148 71.3066 104.516 69.9989C106.884 68.6912 109.604 68.0374 112.676 68.0374C115.673 68.0374 118.337 68.6726 120.669 69.9428C123 71.2131 124.813 73.0253 126.109 75.3791C127.441 77.733 128.107 80.4791 128.107 83.6176ZM118.393 81.0956C118.393 79.4516 117.838 78.144 116.728 77.1725C115.617 76.2011 114.23 75.7154 112.565 75.7154C110.973 75.7154 109.623 76.1824 108.513 77.1165C107.439 78.0505 106.773 79.3769 106.514 81.0956H118.393Z" fill="black"/>
<path d="M10.5465 93.033C15.145 93.033 18.8728 89.2692 18.8728 84.6264C18.8728 79.9835 15.145 76.2198 10.5465 76.2198C5.94801 76.2198 2.22021 79.9835 2.22021 84.6264C2.22021 89.2692 5.94801 93.033 10.5465 93.033Z" fill="#0061FF"/>
<path d="M10.5465 93.033C15.145 93.033 18.8728 89.2692 18.8728 84.6264C18.8728 79.9835 15.145 76.2198 10.5465 76.2198C5.94801 76.2198 2.22021 79.9835 2.22021 84.6264C2.22021 89.2692 5.94801 93.033 10.5465 93.033Z" fill="url(#paint0_linear_1_14)"/>
<path d="M83.3347 24.8107C82.6353 24.8107 82.008 24.693 81.4529 24.4576C80.8978 24.211 80.4593 23.8747 80.1374 23.4488C79.8154 23.0116 79.6378 22.5129 79.6045 21.9524H81.1698C81.2142 22.412 81.4252 22.7875 81.8026 23.0789C82.1912 23.3703 82.6963 23.516 83.318 23.516C83.8953 23.516 84.3505 23.3871 84.6835 23.1293C85.0166 22.8715 85.1831 22.5465 85.1831 22.1542C85.1831 21.7507 85.0055 21.4536 84.6502 21.2631C84.295 21.0613 83.7454 20.8652 83.0016 20.6746C82.3244 20.4953 81.7693 20.3159 81.3364 20.1366C80.9145 19.946 80.5481 19.6714 80.2373 19.3127C79.9375 18.9429 79.7877 18.4609 79.7877 17.8668C79.7877 17.396 79.9264 16.9645 80.204 16.5722C80.4815 16.1799 80.8756 15.8716 81.3863 15.6475C81.897 15.4121 82.4798 15.2944 83.1348 15.2944C84.1451 15.2944 84.9611 15.5522 85.5827 16.0678C86.2044 16.5834 86.5375 17.2896 86.5819 18.1863H85.0665C85.0332 17.7043 84.8389 17.3176 84.4837 17.0261C84.1395 16.7347 83.6733 16.589 83.0849 16.589C82.5409 16.589 82.1079 16.7067 81.786 16.9421C81.464 17.1775 81.3031 17.4857 81.3031 17.8668C81.3031 18.1694 81.3974 18.4216 81.5861 18.6234C81.786 18.814 82.0302 18.9709 82.3189 19.0942C82.6186 19.2063 83.0294 19.3352 83.5511 19.4809C84.2061 19.6602 84.739 19.8396 85.1498 20.0189C85.5605 20.187 85.9102 20.4448 86.1989 20.7923C86.4986 21.1398 86.6541 21.5937 86.6652 22.1542C86.6652 22.6586 86.5264 23.1125 86.2489 23.516C85.9713 23.9196 85.5772 24.239 85.0665 24.4744C84.5669 24.6986 83.9897 24.8107 83.3347 24.8107ZM90.6528 16.7067V22.1374C90.6528 22.5857 90.7472 22.9052 90.9359 23.0957C91.1246 23.2751 91.4521 23.3647 91.9184 23.3647H93.0341V24.6593H91.6686C90.8249 24.6593 90.1921 24.4632 89.7702 24.0709C89.3483 23.6786 89.1374 23.0341 89.1374 22.1374V16.7067H87.9551V15.4457H89.1374V13.1255H90.6528V15.4457H93.0341V16.7067H90.6528ZM102.963 15.4457V24.6593H101.448V23.2975C101.159 23.7682 100.754 24.1381 100.232 24.4071C99.7216 24.6649 99.1555 24.7938 98.5338 24.7938C97.8233 24.7938 97.1849 24.6481 96.6187 24.3567C96.0525 24.0541 95.6029 23.6057 95.2699 23.0116C94.9479 22.4176 94.7869 21.6946 94.7869 20.8427V15.4457H96.2857V20.641C96.2857 21.5489 96.5133 22.2494 96.9684 22.7426C97.4236 23.2246 98.0453 23.4656 98.8335 23.4656C99.6439 23.4656 100.282 23.2134 100.749 22.709C101.215 22.2046 101.448 21.4704 101.448 20.5065V15.4457H102.963ZM104.956 20.0189C104.956 19.0774 105.144 18.2535 105.522 17.5474C105.899 16.83 106.416 16.2752 107.071 15.8829C107.737 15.4905 108.481 15.2944 109.302 15.2944C110.013 15.2944 110.673 15.4625 111.284 15.7988C111.895 16.1238 112.361 16.5554 112.683 17.0934V12.2176H114.215V24.6593H112.683V22.9276C112.383 23.4768 111.939 23.9308 111.351 24.2894C110.762 24.6369 110.074 24.8107 109.285 24.8107C108.475 24.8107 107.737 24.6089 107.071 24.2054C106.416 23.8019 105.899 23.2358 105.522 22.5072C105.144 21.7787 104.956 20.9492 104.956 20.0189ZM112.683 20.0357C112.683 19.3408 112.544 18.7355 112.267 18.2199C111.989 17.7043 111.612 17.312 111.134 17.043C110.668 16.7627 110.151 16.6226 109.585 16.6226C109.019 16.6226 108.503 16.7571 108.036 17.0261C107.57 17.2952 107.198 17.6875 106.921 18.2031C106.643 18.7187 106.504 19.324 106.504 20.0189C106.504 20.7251 106.643 21.3415 106.921 21.8683C107.198 22.384 107.57 22.7819 108.036 23.0621C108.503 23.3311 109.019 23.4656 109.585 23.4656C110.151 23.4656 110.668 23.3311 111.134 23.0621C111.612 22.7819 111.989 22.384 112.267 21.8683C112.544 21.3415 112.683 20.7307 112.683 20.0357ZM117.558 13.9493C117.269 13.9493 117.025 13.8485 116.825 13.6467C116.625 13.4449 116.525 13.1983 116.525 12.9069C116.525 12.6155 116.625 12.3689 116.825 12.1671C117.025 11.9654 117.269 11.8645 117.558 11.8645C117.835 11.8645 118.069 11.9654 118.257 12.1671C118.457 12.3689 118.557 12.6155 118.557 12.9069C118.557 13.1983 118.457 13.4449 118.257 13.6467C118.069 13.8485 117.835 13.9493 117.558 13.9493ZM118.291 15.4457V24.6593H116.775V15.4457H118.291ZM124.854 24.8107C123.999 24.8107 123.222 24.6145 122.523 24.2222C121.834 23.8299 121.29 23.2751 120.891 22.5577C120.502 21.8291 120.308 20.9885 120.308 20.0357C120.308 19.0942 120.508 18.2647 120.907 17.5474C121.318 16.8188 121.873 16.264 122.572 15.8829C123.272 15.4905 124.055 15.2944 124.92 15.2944C125.786 15.2944 126.569 15.4905 127.269 15.8829C127.968 16.264 128.517 16.8132 128.917 17.5305C129.328 18.2479 129.533 19.083 129.533 20.0357C129.533 20.9885 129.322 21.8291 128.9 22.5577C128.49 23.2751 127.929 23.8299 127.219 24.2222C126.508 24.6145 125.72 24.8107 124.854 24.8107ZM124.854 23.4656C125.398 23.4656 125.909 23.3367 126.386 23.0789C126.863 22.8211 127.246 22.4344 127.535 21.9188C127.835 21.4032 127.985 20.7755 127.985 20.0357C127.985 19.2959 127.84 18.6682 127.552 18.1526C127.263 17.637 126.885 17.2559 126.419 17.0093C125.953 16.7515 125.448 16.6226 124.904 16.6226C124.349 16.6226 123.838 16.7515 123.372 17.0093C122.917 17.2559 122.55 17.637 122.273 18.1526C121.995 18.6682 121.856 19.2959 121.856 20.0357C121.856 20.7867 121.99 21.42 122.256 21.9356C122.534 22.4512 122.9 22.8379 123.355 23.0957C123.81 23.3423 124.31 23.4656 124.854 23.4656Z" fill="black"/>
<defs>
<linearGradient id="paint0_linear_1_14" x1="10.5465" y1="76.2198" x2="10.5465" y2="93.033" gradientUnits="userSpaceOnUse">
<stop stop-color="#60EFFF"/>
<stop offset="1" stop-color="#60EFFF" stop-opacity="0"/>
</linearGradient>
</defs>
</svg>
